<svg width="48" height="48" viewBox="0 0 48 48" fill="none" xmlns="http://www.w3.org/2000/svg">
<path d="M9.70093 38.6425V15.1075C9.70093 14.1592 10.0324 13.3523 10.6954 12.687C11.3584 12.0217 12.1624 11.689 13.1074 11.689H18.1184V5.3795C18.1184 4.8925 18.2974 4.46699 18.6554 4.10299C19.0134 3.73933 19.4363 3.5575 19.9239 3.5575H28.0759C28.5636 3.5575 28.9864 3.73933 29.3444 4.10299C29.7024 4.46699 29.8814 4.8925 29.8814 5.3795V11.689H34.8924C35.8408 11.689 36.6476 12.0217 37.3129 12.687C37.9783 13.3523 38.3109 14.1592 38.3109 15.1075V38.6425C38.3109 39.5875 37.9783 40.3915 37.3129 41.0545C36.6476 41.7175 35.8408 42.049 34.8924 42.049V42.8705C34.8924 43.3158 34.7434 43.6892 34.4454 43.9905C34.1478 44.2918 33.7728 44.4425 33.3204 44.4425C32.8634 44.4425 32.4713 44.3028 32.1439 44.0235C31.8169 43.7442 31.6853 43.3598 31.7489 42.8705V42.049H16.2509V42.8705C16.2509 43.3158 16.1021 43.6892 15.8044 43.9905C15.5064 44.2918 15.1314 44.4425 14.6794 44.4425C14.2221 44.4425 13.8298 44.3028 13.5024 44.0235C13.1754 43.7442 13.0438 43.3598 13.1074 42.8705V42.049C12.1624 42.049 11.3584 41.7175 10.6954 41.0545C10.0324 40.3915 9.70093 39.5875 9.70093 38.6425ZM21.2499 11.689H26.7499V6.689H21.2499V11.689ZM23.9999 23.6665C25.9139 23.6665 27.8036 23.4538 29.6689 23.0285C31.5339 22.6028 33.2751 21.8847 34.8924 20.874V15.1075H13.1074V20.876C14.7248 21.8853 16.4661 22.6028 18.3314 23.0285C20.1964 23.4538 22.0859 23.6665 23.9999 23.6665ZM22.4284 27.6435V26.998C20.7601 26.898 19.1419 26.629 17.5739 26.191C16.0056 25.7527 14.5168 25.1082 13.1074 24.2575V38.6425H34.8924V24.2455C33.4831 25.0962 31.9943 25.7407 30.4259 26.179C28.8579 26.617 27.2398 26.89 25.5714 26.998V27.6435C25.5714 28.0888 25.4218 28.4622 25.1224 28.7635C24.8228 29.0645 24.4456 29.215 23.9909 29.215C23.5366 29.215 23.1626 29.0662 22.8689 28.7685C22.5753 28.4705 22.4284 28.0955 22.4284 27.6435Z" fill="black"/>
</svg>
