<svg width="24" height="24" viewBox="0 0 24 24" fill="none" xmlns="http://www.w3.org/2000/svg">
<path d="M17.6006 5.925C17.7649 5.925 17.8669 5.97351 17.9473 6.05391C18.0275 6.13422 18.0761 6.2357 18.0762 6.39961C18.0762 6.56382 18.0276 6.6659 17.9473 6.74629L12.6934 12.0002L13.0469 12.3537L17.9473 17.2531C18.0276 17.3335 18.0761 17.4357 18.0762 17.5998C18.0762 17.7641 18.0277 17.8661 17.9473 17.9465C17.8669 18.0269 17.7649 18.0754 17.6006 18.0754C17.4364 18.0754 17.3343 18.0269 17.2539 17.9465L12.3545 13.0461L12.001 12.6926L6.74707 17.9465C6.66668 18.0268 6.56459 18.0754 6.40039 18.0754C6.23648 18.0753 6.135 18.0267 6.05469 17.9465C5.97428 17.8661 5.92578 17.7641 5.92578 17.5998C5.92582 17.4357 5.97432 17.3335 6.05469 17.2531L11.3076 12.0002L10.9541 11.6467L6.05469 6.74629C5.97429 6.66589 5.92578 6.56388 5.92578 6.39961C5.92586 6.23557 5.97435 6.13425 6.05469 6.05391C6.13503 5.97357 6.23635 5.92508 6.40039 5.925C6.56466 5.925 6.66667 5.97351 6.74707 6.05391L11.6475 10.9533L12.001 11.3068L17.2539 6.05391C17.3343 5.97354 17.4364 5.92504 17.6006 5.925Z" fill="white" stroke="black"/>
</svg>
