<svg width="24" height="24" viewBox="0 0 24 24" fill="none" xmlns="http://www.w3.org/2000/svg">
<path d="M12.0051 4.86627C14.4095 4.86627 14.6941 4.87696 15.6395 4.91914C16.5186 4.95795 16.9927 5.1053 17.3094 5.22847C17.7278 5.39045 18.0298 5.5873 18.3426 5.90001C18.6592 6.21665 18.8521 6.5153 19.0175 6.93374C19.1406 7.25039 19.288 7.72789 19.3268 8.60358C19.369 9.55296 19.3797 9.83754 19.3797 12.2385C19.3797 14.6395 19.369 14.9275 19.3268 15.8735C19.288 16.7526 19.1406 17.2267 19.0175 17.5433C18.8555 17.9618 18.6592 18.2638 18.3459 18.5765C18.0293 18.8931 17.7306 19.0861 17.3128 19.2514C16.9961 19.3746 16.518 19.5219 15.6429 19.5607C14.6935 19.6029 14.409 19.6136 12.008 19.6136C9.60697 19.6136 9.31901 19.6029 8.37301 19.5607C7.49394 19.5219 7.01981 19.3746 6.70317 19.2514C6.28472 19.0894 5.9827 18.8931 5.66943 18.5799C5.35278 18.2632 5.15987 17.9646 4.99452 17.5467C4.87135 17.2301 4.72399 16.752 4.68519 15.8769C4.643 14.9275 4.63232 14.6429 4.63232 12.2419C4.63232 9.84092 4.643 9.55296 4.68519 8.60696C4.72399 7.72789 4.87135 7.25376 4.99452 6.93712C5.1565 6.51867 5.35335 6.21665 5.66606 5.90338C5.9827 5.58674 6.28135 5.39382 6.69979 5.22847C7.01644 5.1053 7.49394 4.95795 8.36963 4.91914C9.31507 4.87696 9.60022 4.86627 12.0046 4.86627H12.0051ZM12.0051 3.24592C9.56197 3.24592 9.25658 3.25661 8.29652 3.29879C7.34039 3.34097 6.68292 3.49564 6.11375 3.71724C5.51982 3.94895 5.01702 4.25491 4.51815 4.75772C4.01534 5.25716 3.70938 5.7594 3.47766 6.34995C3.25606 6.92306 3.1014 7.5766 3.05922 8.53272C3.01703 9.49615 3.00635 9.80155 3.00635 12.2447C3.00635 14.6879 3.01703 14.9933 3.05922 15.9534C3.1014 16.9095 3.25606 17.567 3.47766 18.1361C3.70994 18.73 4.01534 19.2329 4.51815 19.7317C5.01702 20.2306 5.51982 20.5405 6.11037 20.7688C6.68348 20.9904 7.33702 21.1451 8.29314 21.1873C9.25264 21.2295 9.5586 21.2401 12.0018 21.2401C14.4449 21.2401 14.7509 21.2295 15.7104 21.1873C16.6665 21.1451 17.324 20.9904 17.8932 20.7688C18.4837 20.5405 18.9865 20.2312 19.4854 19.7317C19.9843 19.2323 20.2942 18.73 20.5225 18.1395C20.7441 17.5664 20.8988 16.9129 20.941 15.9567C20.9831 14.9972 20.9938 14.6913 20.9938 12.2481C20.9938 9.80492 20.9831 9.49953 20.941 8.53947C20.8988 7.58334 20.7441 6.92587 20.5225 6.3567C20.3009 5.75884 19.995 5.25659 19.4927 4.75716C18.9938 4.25829 18.491 3.94839 17.9005 3.72005C17.3274 3.49845 16.6738 3.34379 15.7177 3.3016C14.7548 3.25605 14.4489 3.24536 12.0057 3.24536L12.0051 3.24592Z" fill="black"/>
<path d="M12.0049 7.62207C9.45317 7.62207 7.38232 9.69236 7.38232 12.2446C7.38232 14.7969 9.45261 16.8672 12.0049 16.8672C14.5572 16.8672 16.6275 14.7969 16.6275 12.2446C16.6275 9.69292 14.5572 7.62207 12.0049 7.62207ZM12.0049 15.2429C10.3491 15.2429 9.00661 13.9004 9.00661 12.2446C9.00661 10.5889 10.3491 9.24635 12.0049 9.24635C13.6607 9.24635 15.0032 10.5889 15.0032 12.2446C15.0032 13.9004 13.6607 15.2429 12.0049 15.2429Z" fill="black"/>
<path d="M17.8886 7.4394C17.8886 8.03557 17.4054 8.51869 16.8093 8.51869C16.2131 8.51869 15.73 8.03557 15.73 7.4394C15.73 6.84323 16.2131 6.36011 16.8093 6.36011C17.4054 6.36011 17.8886 6.84323 17.8886 7.4394Z" fill="black"/>
</svg>
