<svg width="23" height="23" viewBox="0 0 23 23" fill="none" xmlns="http://www.w3.org/2000/svg">
<g clip-path="url(#clip0_15208_178)">
<path d="M2.24194 22.0852C2.24194 22.0706 4.91431 19.8022 11.2161 19.8022C17.3373 19.8022 20.1902 22.0706 20.1902 22.0852H2.24194Z" fill="#F6CC90"/>
<path d="M11.2158 19.8022C10.8249 19.8022 10.448 19.811 10.0847 19.8274C15.4473 20.0751 17.9574 22.0716 17.9574 22.0852H20.19C20.19 22.0706 17.337 19.8022 11.2158 19.8022Z" fill="#F0C17F"/>
<path d="M15.291 4.00738C14.5608 6.12537 12.5932 6.48985 12.5932 6.48985C12.5932 6.48985 11.2894 4.92883 12.0006 2.86587C12.7497 0.692851 14.7173 0.328369 14.7173 0.328369C14.7173 0.328369 16.0306 1.8619 15.291 4.00738Z" fill="#C5E866"/>
<path d="M14.7178 0.328369C14.7178 0.328369 14.1977 0.424765 13.5906 0.813586C13.9242 1.42891 14.3377 2.5832 13.8468 4.00733C13.4935 5.03192 12.8508 5.6461 12.2812 6.00721C12.4483 6.31566 12.5936 6.48976 12.5936 6.48976C12.5936 6.48976 14.5613 6.12532 15.2914 4.00729C16.031 1.8619 14.7178 0.328369 14.7178 0.328369Z" fill="#B2D94B"/>
<path d="M13.3293 13.9644C12.1297 14.1349 11.2467 13.8899 11.2467 13.8899C11.2467 13.8899 10.483 10.8253 12.8696 8.43109C15.3835 5.90918 18.3748 6.73918 18.3748 6.73918C18.3748 6.73918 19.031 9.24056 17.2922 11.565" fill="#9CC042"/>
<path d="M18.3745 6.73932C18.3745 6.73932 17.5725 6.51689 16.45 6.65242C16.7531 6.69042 16.9299 6.73932 16.9299 6.73932C16.9299 6.73932 17.5861 9.2407 15.8473 11.5652L11.8843 13.9646C11.8405 13.9708 11.7971 13.9763 11.7542 13.9815C12.1281 14.0276 12.6824 14.0564 13.329 13.9646L17.2919 11.5652C19.0307 9.2407 18.3745 6.73932 18.3745 6.73932Z" fill="#85AA18"/>
<path d="M8.38636 12.3572C10.5155 14.0353 10.1522 16.4405 10.1522 16.4405C10.1522 16.4405 7.8533 17.3203 5.77952 15.6858C3.59513 13.9642 3.95843 11.559 3.95843 11.559C3.95843 11.559 6.22963 10.6574 8.38636 12.3572Z" fill="#C5E866"/>
<path d="M5.94454 8.89634C8.08818 11.6276 11.1562 11.1579 11.1562 11.1579C11.1562 11.1579 12.2756 8.20533 10.1876 5.54499C7.98828 2.74283 4.92022 3.21246 4.92022 3.21246C4.92022 3.21246 3.77306 6.12963 5.94454 8.89634Z" fill="#9CC042"/>
<path d="M16.7378 15.2028C14.8983 16.4746 13.0982 15.5983 13.0982 15.5983C13.0982 15.5983 12.9703 13.5658 14.762 12.327C16.6492 11.0222 18.4493 11.8986 18.4493 11.8986C18.4493 11.8986 18.6011 13.9145 16.7378 15.2028Z" fill="#C5E866"/>
<path d="M18.4496 11.8984C18.4496 11.8984 17.5113 11.4418 16.2794 11.6788C16.7288 11.764 17.005 11.8984 17.005 11.8984C17.005 11.8984 17.1567 13.9143 15.2934 15.2026C14.7946 15.5475 14.2989 15.7341 13.8411 15.8234C14.5357 15.9553 15.6296 15.969 16.738 15.2026C18.6014 13.9143 18.4496 11.8984 18.4496 11.8984Z" fill="#B2D94B"/>
<path d="M20.2446 21.7146C19.5953 21.257 18.855 20.9162 18.1163 20.6319C16.7833 20.119 14.5651 19.5106 11.493 19.4757C11.5429 19.0508 11.6611 18.4405 11.9379 17.761C12.2129 17.086 12.5851 16.4772 13.0515 15.9362C13.2705 16.0263 13.8342 16.2239 14.5709 16.2239C15.2531 16.2239 16.0835 16.0543 16.9245 15.4728C18.9197 14.0934 18.7836 11.9639 18.7768 11.8739C18.768 11.7575 18.6981 11.6544 18.5931 11.6034C18.5631 11.5888 18.2792 11.4544 17.8305 11.3633C18.1964 10.7891 18.4648 10.1657 18.6302 9.50419C18.7329 9.09331 18.096 8.93414 17.9931 9.34494C17.8187 10.0426 17.5161 10.693 17.0936 11.2804C16.3826 11.2636 15.4899 11.4247 14.5753 12.057C13.8937 12.5283 13.4681 13.1018 13.2025 13.6499C12.6263 13.7232 12.1311 13.6963 11.7956 13.655C12.4627 12.7552 14.2014 10.5745 16.1589 9.43551C16.525 9.22254 16.1948 8.65489 15.8287 8.86795C13.9238 9.97628 12.2657 11.9493 11.4666 12.9968C11.4205 11.9748 11.5977 10.1722 13.1022 8.66299C14.0828 7.67933 15.2499 7.10936 16.571 6.96902C17.2625 6.89556 17.8189 6.9653 18.0959 7.0152C18.125 7.18654 18.1609 7.46321 18.167 7.81053C18.1744 8.23 18.831 8.22492 18.8236 7.79902C18.8117 7.11755 18.6973 6.67449 18.6925 6.65597C18.6628 6.5429 18.5753 6.45416 18.4626 6.42291C18.4298 6.4138 17.6426 6.20026 16.5319 6.31285C15.5097 6.41656 14.0042 6.82801 12.6372 8.19935C12.5231 8.31378 12.4164 8.4297 12.3159 8.54663C12.5002 7.97889 12.7016 7.36484 12.9073 6.74729C13.502 6.56584 14.9707 5.94408 15.6015 4.11436C16.3933 1.8175 15.0254 0.183244 14.9668 0.114778C14.8907 0.0257807 14.7728 -0.0158507 14.6576 0.0055122C14.5696 0.0218408 12.4926 0.431588 11.6903 2.75883C11.0242 4.69103 11.9734 6.20105 12.2636 6.5992C12.0721 7.17424 11.8852 7.74434 11.7125 8.27583C11.5795 7.38756 11.233 6.34538 10.4458 5.34242C9.24999 3.8187 7.80357 3.23174 6.8007 3.00761C5.71102 2.76408 4.90431 2.88284 4.87047 2.88805C4.75485 2.90574 4.65741 2.98362 4.61459 3.09245C4.60536 3.11591 4.38779 3.67686 4.31354 4.53711C4.27721 4.95907 4.93136 5.01541 4.96778 4.59358C5.00959 4.10898 5.10253 3.73075 5.16469 3.51962C5.44608 3.50294 6.0066 3.4997 6.68408 3.65449C7.97951 3.95046 9.07133 4.65478 9.92926 5.74783C10.742 6.78345 11.145 7.98485 11.1269 9.31871C11.121 9.75333 11.0689 10.1323 11.0114 10.4235C9.71261 8.00459 7.87361 6.1462 7.79298 6.0653C7.49407 5.76539 7.02908 6.22885 7.3279 6.5288C7.34729 6.54828 9.24302 8.46534 10.4989 10.8584C10.2054 10.8517 9.82477 10.8193 9.39782 10.7249C8.11233 10.4405 7.03731 9.75709 6.20271 8.69372C5.62163 7.95329 5.23688 7.13156 5.05914 6.25139C4.97536 5.8363 4.33162 5.96623 4.4155 6.38136C4.61367 7.36292 5.04119 8.27732 5.6862 9.09913C6.85393 10.587 8.28765 11.1565 9.2847 11.3723C9.78156 11.4799 10.2936 11.5309 10.802 11.5143V12.6967V12.7163V17.043C10.703 16.8293 10.596 16.6271 10.4833 16.4357C10.5278 16.0471 10.6898 13.755 8.58918 12.0994C6.31001 10.3032 3.93676 11.2142 3.83682 11.2539C3.7283 11.297 3.65077 11.3945 3.63335 11.51C3.61737 11.6159 3.26803 14.1249 5.57584 15.9438C6.64774 16.7886 7.76785 17.0091 8.64526 17.0091C9.21461 17.0091 9.68153 16.9163 9.96696 16.8409C10.4241 17.6392 10.6943 18.5205 10.7755 19.4782C9.07632 19.5069 7.49114 19.7019 6.05812 20.06C5.64723 20.1627 5.80641 20.7997 6.21733 20.6971C7.60631 20.35 9.14702 20.1613 10.802 20.1344V20.8891C10.802 21.3126 11.4587 21.3126 11.4587 20.8891V20.1325C15.331 20.171 17.8057 21.1191 19.0364 21.757H3.35961C3.6787 21.5873 4.08722 21.3949 4.59095 21.2034C4.98678 21.0528 4.75332 20.4389 4.35754 20.5896C3.53975 20.9006 2.95744 21.2162 2.61288 21.4262C1.91333 21.8524 1.91333 21.9552 1.91333 22.0853C1.91333 22.2666 2.06029 22.4136 2.24165 22.4136H20.19C20.689 22.4136 20.4926 21.8895 20.2446 21.7146ZM14.9488 12.5971C16.3341 11.6393 17.6498 11.9551 18.1229 12.1208C18.1045 12.6279 17.921 13.9856 16.5511 14.9327C15.3089 15.7916 14.1004 15.5856 13.5499 15.4174C14.1971 14.8118 14.9843 14.3088 15.9081 13.913C16.2973 13.7463 16.0388 13.1427 15.6495 13.3095C14.816 13.6665 14.129 14.0917 13.5618 14.5473C13.7326 13.938 14.1117 13.1758 14.9488 12.5971ZM12.4721 14.3533C12.6192 14.3533 12.7759 14.348 12.9402 14.3361C12.8321 14.7112 12.7904 15.0412 12.7754 15.273C12.1536 15.9329 11.737 16.6138 11.4587 17.2172V14.27C11.6889 14.3097 12.0399 14.3533 12.4721 14.3533ZM12.3111 2.97289C12.8609 1.37816 14.1063 0.849652 14.5861 0.701425C14.8711 1.12155 15.5243 2.32369 14.9807 3.90043C14.5737 5.08103 13.7569 5.66365 13.1786 5.93931C13.6049 4.67925 14.0262 3.48551 14.3318 2.73606C14.4917 2.34391 13.8836 2.09592 13.7238 2.48811C13.4049 3.27 12.9705 4.50174 12.5345 5.79113C12.236 5.2198 11.8892 4.19657 12.3111 2.97289ZM5.98234 15.4281C5.14503 14.7682 4.60453 13.9282 4.37579 12.9316C4.26364 12.443 4.2576 12.033 4.26727 11.8042C4.82691 11.6474 6.54307 11.3229 8.18272 12.6152C8.99683 13.2569 9.521 14.0836 9.74076 15.0722C9.77272 15.216 9.79544 15.3528 9.81155 15.4805C9.59289 15.2169 9.37037 14.9846 9.15613 14.7837C8.02342 13.7209 6.89906 13.2758 6.85174 13.2574C6.4571 13.1037 6.21882 13.7156 6.61347 13.8693C6.62384 13.8733 7.66576 14.2858 8.70681 15.2625C9.03942 15.5746 9.33233 15.9054 9.58623 16.254C8.8588 16.4023 7.36292 16.5161 5.98234 15.4281Z" fill="#060606"/>
</g>
<defs>
<clipPath id="clip0_15208_178">
<rect width="22.4135" height="22.4135" fill="white"/>
</clipPath>
</defs>
</svg>
