<svg width="48" height="48" viewBox="0 0 48 48" fill="none" xmlns="http://www.w3.org/2000/svg">
<path d="M32.7716 25.4435L28.1021 32.973C27.8354 33.4143 27.4584 33.585 26.9711 33.485C26.4837 33.385 26.1734 33.0977 26.0401 32.623L24.4021 26.0085L9.28157 41.0555C8.94157 41.4032 8.54374 41.577 8.08807 41.577C7.63241 41.577 7.23457 41.4032 6.89457 41.0555C6.55491 40.7155 6.38507 40.3177 6.38507 39.862C6.38507 39.4064 6.55491 39.0085 6.89457 38.6685L21.9651 23.61L15.3271 21.9715C14.8524 21.8382 14.5671 21.528 14.4711 21.041C14.3751 20.5537 14.5437 20.1727 14.9771 19.898L22.5066 15.1785L21.8946 6.37501C21.8612 5.86701 22.0716 5.49635 22.5256 5.26301C22.9796 5.02968 23.3939 5.07968 23.7686 5.41301L30.5241 11.0945L38.7151 7.81101C39.1817 7.64435 39.5857 7.73168 39.9271 8.07301C40.2684 8.41435 40.3557 8.81835 40.1891 9.28501L36.8556 17.476L42.5371 24.2435C42.8704 24.6182 42.9287 25.0325 42.7121 25.4865C42.4954 25.9405 42.1331 26.1508 41.6251 26.1175L32.7716 25.4435ZM6.32307 11.998C6.14041 11.8233 6.04907 11.618 6.04907 11.382C6.04907 11.1463 6.14041 10.9372 6.32307 10.7545L8.76657 8.31101C8.94124 8.13635 9.14641 8.04901 9.38207 8.04901C9.61807 8.04901 9.82741 8.13635 10.0101 8.31101L12.3916 10.7045C12.5739 10.8872 12.6651 11.0943 12.6651 11.326C12.6651 11.558 12.5739 11.7653 12.3916 11.948L9.94807 14.3915C9.76541 14.5738 9.55807 14.665 9.32607 14.665C9.09441 14.665 8.88724 14.5738 8.70457 14.3915L6.32307 11.998ZM27.9741 27.073L31.0521 22.1165L36.8966 22.5545L33.0926 18.074L35.2946 12.6675L29.8881 14.8575L25.3956 11.0535L25.8456 16.898L20.8771 20.014L26.5716 21.4285L27.9741 27.073ZM36.0521 41.677L33.6086 39.2455C33.4262 39.0629 33.3434 38.8557 33.3601 38.624C33.3767 38.392 33.4762 38.1847 33.6586 38.002L36.0521 35.6205C36.2267 35.4378 36.4321 35.3465 36.6681 35.3465C36.9037 35.3465 37.1129 35.4378 37.2956 35.6205L39.7391 38.052C39.9137 38.2347 39.9927 38.442 39.9761 38.674C39.9594 38.9057 39.8637 39.1129 39.6891 39.2955L37.2956 41.677C37.1129 41.8597 36.9057 41.951 36.6741 41.951C36.4421 41.951 36.2347 41.8597 36.0521 41.677Z" fill="black"/>
</svg>
